<?xml version="1.0" encoding="UTF-8"?>
<!DOCTYPE svg PUBLIC "-//W3C//DTD SVG 1.1//EN" "http://www.w3.org/Graphics/SVG/1.1/DTD/svg11.dtd">
<svg xmlns="http://www.w3.org/2000/svg" version="1.1" width="939px" height="613px" style="shape-rendering:geometricPrecision; text-rendering:geometricPrecision; image-rendering:optimizeQuality; fill-rule:evenodd; clip-rule:evenodd" xmlns:xlink="http://www.w3.org/1999/xlink">
<g><path style="opacity:1" fill="#fefefe" d="M -0.5,-0.5 C 312.5,-0.5 625.5,-0.5 938.5,-0.5C 938.5,203.833 938.5,408.167 938.5,612.5C 625.5,612.5 312.5,612.5 -0.5,612.5C -0.5,408.167 -0.5,203.833 -0.5,-0.5 Z"/></g>
<g><path style="opacity:1" fill="#5ba6e1" d="M 543.5,175.5 C 541.325,175.318 539.325,174.651 537.5,173.5C 536.833,173.833 536.167,174.167 535.5,174.5C 533.163,179.653 531.83,184.986 531.5,190.5C 531.167,189.833 530.833,189.167 530.5,188.5C 530.927,183.062 532.261,177.729 534.5,172.5C 538.326,170.988 541.326,171.988 543.5,175.5 Z"/></g>
<g><path style="opacity:1" fill="#2c9af0" d="M 338.5,191.5 C 339.401,188.128 339.401,184.795 338.5,181.5C 335.904,182.213 333.237,182.213 330.5,181.5C 330.5,182.5 330.5,183.5 330.5,184.5C 332.575,184.302 334.575,184.135 336.5,184C 335.887,188.348 334.054,189.181 331,186.5C 328.884,190.19 327.051,190.19 325.5,186.5C 324.614,187.325 324.281,188.325 324.5,189.5C 323.167,189.5 321.833,189.5 320.5,189.5C 320.657,188.127 320.49,186.793 320,185.5C 318.33,187.698 316.33,188.032 314,186.5C 312.108,187.617 311.275,189.284 311.5,191.5C 309.833,191.5 308.167,191.5 306.5,191.5C 306.5,196.833 306.5,202.167 306.5,207.5C 305.344,199.677 305.177,191.677 306,183.5C 307.272,177.23 310.939,173.23 317,171.5C 317.772,171.645 318.439,171.978 319,172.5C 321.704,177.108 323.038,182.108 323,187.5C 324.833,185 326.667,182.5 328.5,180C 340.206,176.539 343.539,180.373 338.5,191.5 Z"/></g>
<g><path style="opacity:1" fill="#1c95f4" d="M 530.5,188.5 C 529.624,188.369 528.957,188.702 528.5,189.5C 527.811,191.444 527.311,193.444 527,195.5C 524.989,191.998 523.656,191.998 523,195.5C 522.189,194.04 521.355,193.707 520.5,194.5C 522.46,196.156 524.46,197.823 526.5,199.5C 527.386,200.325 527.719,201.325 527.5,202.5C 526.5,202.5 525.5,202.5 524.5,202.5C 524.5,201.5 524.5,200.5 524.5,199.5C 520.199,200.908 516.199,202.908 512.5,205.5C 510.356,203.439 510.023,204.105 511.5,207.5C 506.251,206.102 502.251,202.935 499.5,198C 501.722,192.703 505.722,191.037 511.5,193C 513.421,193.36 515.088,194.194 516.5,195.5C 516.833,195.167 517.167,194.833 517.5,194.5C 514.261,190.282 513.261,185.615 514.5,180.5C 522.864,176.853 528.198,179.52 530.5,188.5 Z"/></g>
<g><path style="opacity:1" fill="#0394fe" d="M 511.5,207.5 C 510.023,204.105 510.356,203.439 512.5,205.5C 516.199,202.908 520.199,200.908 524.5,199.5C 524.5,200.5 524.5,201.5 524.5,202.5C 525.5,202.5 526.5,202.5 527.5,202.5C 527.719,201.325 527.386,200.325 526.5,199.5C 524.46,197.823 522.46,196.156 520.5,194.5C 521.355,193.707 522.189,194.04 523,195.5C 523.656,191.998 524.989,191.998 527,195.5C 527.311,193.444 527.811,191.444 528.5,189.5C 528.957,188.702 529.624,188.369 530.5,188.5C 530.833,189.167 531.167,189.833 531.5,190.5C 531.56,191.043 531.893,191.376 532.5,191.5C 534.613,185.169 535.613,185.169 535.5,191.5C 537.833,191.5 540.167,191.5 542.5,191.5C 543.596,194.769 543.93,201.435 543.5,211.5C 542.325,211.281 541.325,211.614 540.5,212.5C 541.309,214.071 541.643,215.738 541.5,217.5C 538.976,216.188 536.309,215.688 533.5,216C 534.759,216.923 536.092,217.757 537.5,218.5C 535.202,221.111 533.535,220.611 532.5,217C 531.5,216.667 530.5,216.333 529.5,216C 532.728,212.779 532.062,211.279 527.5,211.5C 527.5,212.833 527.5,214.167 527.5,215.5C 526.5,215.5 525.5,215.5 524.5,215.5C 524.64,213.876 523.973,212.71 522.5,212C 523.448,211.517 524.448,211.351 525.5,211.5C 526.167,209.5 526.833,207.5 527.5,205.5C 525.332,204.821 523.332,203.821 521.5,202.5C 518.358,204.547 515.025,206.214 511.5,207.5 Z"/></g>
<g><path style="opacity:1" fill="#1094f9" d="M 338.5,191.5 C 337.544,192.659 336.544,193.826 335.5,195C 335.667,195.5 335.833,196 336,196.5C 337.734,194.549 339.901,193.549 342.5,193.5C 344.527,193.338 346.527,193.505 348.5,194C 350.224,194.448 350.891,195.282 350.5,196.5C 351.086,196.291 351.586,195.957 352,195.5C 353.269,196.905 353.769,198.571 353.5,200.5C 340.325,211.316 325.658,219.649 309.5,225.5C 308.833,225.5 308.5,225.167 308.5,224.5C 307.725,218.847 307.058,213.18 306.5,207.5C 306.5,202.167 306.5,196.833 306.5,191.5C 308.167,191.5 309.833,191.5 311.5,191.5C 311.275,189.284 312.108,187.617 314,186.5C 316.33,188.032 318.33,187.698 320,185.5C 320.49,186.793 320.657,188.127 320.5,189.5C 321.833,189.5 323.167,189.5 324.5,189.5C 324.281,188.325 324.614,187.325 325.5,186.5C 327.051,190.19 328.884,190.19 331,186.5C 334.054,189.181 335.887,188.348 336.5,184C 334.575,184.135 332.575,184.302 330.5,184.5C 330.5,183.5 330.5,182.5 330.5,181.5C 333.237,182.213 335.904,182.213 338.5,181.5C 339.401,184.795 339.401,188.128 338.5,191.5 Z"/></g>
<g><path style="opacity:1" fill="#55a6e4" d="M 342.5,193.5 C 346.603,191.925 350.436,192.592 354,195.5C 354.78,197.387 354.613,199.054 353.5,200.5C 353.769,198.571 353.269,196.905 352,195.5C 351.586,195.957 351.086,196.291 350.5,196.5C 350.891,195.282 350.224,194.448 348.5,194C 346.527,193.505 344.527,193.338 342.5,193.5 Z"/></g>
<g><path style="opacity:1" fill="#253344" d="M 451.5,196.5 C 452.5,196.833 453.167,197.5 453.5,198.5C 431.669,194.722 412.669,199.055 396.5,211.5C 396.062,211.565 395.728,211.399 395.5,211C 396.731,209.595 398.064,208.429 399.5,207.5C 400.683,206.496 402.016,205.662 403.5,205C 403.167,204.667 402.833,204.333 402.5,204C 409.47,201.565 416.47,199.065 423.5,196.5C 432.834,195.349 442.167,195.349 451.5,196.5 Z"/></g>
<g><path style="opacity:1" fill="#0d0e10" d="M 453.5,198.5 C 453.5,198.833 453.5,199.167 453.5,199.5C 453.423,200.75 452.756,201.583 451.5,202C 442.52,203.109 433.52,203.943 424.5,204.5C 424.33,205.822 424.663,206.989 425.5,208C 419.39,210.221 413.723,213.221 408.5,217C 405.632,218.383 402.632,219.216 399.5,219.5C 399.719,218.325 399.386,217.325 398.5,216.5C 397.841,219.824 395.841,221.157 392.5,220.5C 392.5,218.833 392.5,217.167 392.5,215.5C 393.833,215.5 395.167,215.5 396.5,215.5C 396.5,214.167 396.5,212.833 396.5,211.5C 412.669,199.055 431.669,194.722 453.5,198.5 Z"/></g>
<g><path style="opacity:1" fill="#121213" d="M 451.5,196.5 C 442.167,195.349 432.834,195.349 423.5,196.5C 416.47,199.065 409.47,201.565 402.5,204C 402.833,204.333 403.167,204.667 403.5,205C 402.016,205.662 400.683,206.496 399.5,207.5C 397.169,207.498 395.169,208.331 393.5,210C 390.405,214.1 386.905,217.934 383,221.5C 382.302,220.309 381.469,219.309 380.5,218.5C 391.835,200.746 408.002,190.746 429,188.5C 435.061,188.65 440.895,189.817 446.5,192C 448.618,193.049 450.284,194.549 451.5,196.5 Z"/></g>
<g><path style="opacity:1" fill="#110f0d" d="M 454.5,203.5 C 454.488,208.703 453.154,213.536 450.5,218C 456.743,218.315 462.743,219.648 468.5,222C 469.333,222.833 470.167,223.667 471,224.5C 471.499,228.486 471.666,232.486 471.5,236.5C 470.527,238.948 470.194,241.615 470.5,244.5C 461.53,244.345 453.696,241.345 447,235.5C 445.438,233.043 444.438,230.376 444,227.5C 435.611,236.947 425.445,243.78 413.5,248C 403.578,249.708 394.245,248.208 385.5,243.5C 380.626,241.411 377.959,237.745 377.5,232.5C 377.351,231.448 377.517,230.448 378,229.5C 380.148,228.195 381.648,226.362 382.5,224C 384.715,223.31 386.882,222.476 389,221.5C 391.059,222.618 393.226,223.285 395.5,223.5C 396.266,229.465 394.599,234.632 390.5,239C 395.694,237.116 398.861,233.282 400,227.5C 402.273,224.196 405.439,222.696 409.5,223C 410.833,222.333 410.833,221.667 409.5,221C 411.263,219.398 413.096,218.898 415,219.5C 415.167,216.667 416.667,215.167 419.5,215C 419.5,214 419.5,213 419.5,212C 423.419,210.138 427.419,208.471 431.5,207C 439.379,206.875 447.046,205.708 454.5,203.5 Z"/></g>
<g><path style="opacity:1" fill="#1e97f5" d="M 543.5,175.5 C 546.038,178.245 547.538,181.578 548,185.5C 548.915,195.721 548.415,205.721 546.5,215.5C 545.778,215.918 545.278,216.584 545,217.5C 544.503,220.146 544.336,222.813 544.5,225.5C 541.951,224.491 539.285,223.658 536.5,223C 528.103,218.801 519.769,214.635 511.5,210.5C 511.5,209.5 511.5,208.5 511.5,207.5C 515.025,206.214 518.358,204.547 521.5,202.5C 523.332,203.821 525.332,204.821 527.5,205.5C 526.833,207.5 526.167,209.5 525.5,211.5C 524.448,211.351 523.448,211.517 522.5,212C 523.973,212.71 524.64,213.876 524.5,215.5C 525.5,215.5 526.5,215.5 527.5,215.5C 527.5,214.167 527.5,212.833 527.5,211.5C 532.062,211.279 532.728,212.779 529.5,216C 530.5,216.333 531.5,216.667 532.5,217C 533.535,220.611 535.202,221.111 537.5,218.5C 536.092,217.757 534.759,216.923 533.5,216C 536.309,215.688 538.976,216.188 541.5,217.5C 541.643,215.738 541.309,214.071 540.5,212.5C 541.325,211.614 542.325,211.281 543.5,211.5C 543.93,201.435 543.596,194.769 542.5,191.5C 540.167,191.5 537.833,191.5 535.5,191.5C 535.613,185.169 534.613,185.169 532.5,191.5C 531.893,191.376 531.56,191.043 531.5,190.5C 531.83,184.986 533.163,179.653 535.5,174.5C 536.167,174.167 536.833,173.833 537.5,173.5C 539.325,174.651 541.325,175.318 543.5,175.5 Z"/></g>
<g><path style="opacity:1" fill="#171b25" d="M 453.5,199.5 C 454.434,200.568 454.768,201.901 454.5,203.5C 447.046,205.708 439.379,206.875 431.5,207C 427.419,208.471 423.419,210.138 419.5,212C 419.5,213 419.5,214 419.5,215C 416.667,215.167 415.167,216.667 415,219.5C 413.096,218.898 411.263,219.398 409.5,221C 410.833,221.667 410.833,222.333 409.5,223C 405.439,222.696 402.273,224.196 400,227.5C 398.861,233.282 395.694,237.116 390.5,239C 394.599,234.632 396.266,229.465 395.5,223.5C 393.226,223.285 391.059,222.618 389,221.5C 386.882,222.476 384.715,223.31 382.5,224C 381.648,226.362 380.148,228.195 378,229.5C 377.517,230.448 377.351,231.448 377.5,232.5C 376.57,227.537 377.57,222.87 380.5,218.5C 381.469,219.309 382.302,220.309 383,221.5C 386.905,217.934 390.405,214.1 393.5,210C 395.169,208.331 397.169,207.498 399.5,207.5C 398.064,208.429 396.731,209.595 395.5,211C 395.728,211.399 396.062,211.565 396.5,211.5C 396.5,212.833 396.5,214.167 396.5,215.5C 395.167,215.5 393.833,215.5 392.5,215.5C 392.5,217.167 392.5,218.833 392.5,220.5C 395.841,221.157 397.841,219.824 398.5,216.5C 399.386,217.325 399.719,218.325 399.5,219.5C 402.632,219.216 405.632,218.383 408.5,217C 413.723,213.221 419.39,210.221 425.5,208C 424.663,206.989 424.33,205.822 424.5,204.5C 433.52,203.943 442.52,203.109 451.5,202C 452.756,201.583 453.423,200.75 453.5,199.5 Z"/></g>
<g><path style="opacity:1" fill="#489ee2" d="M 605.5,213.5 C 611.281,221.757 611.947,230.424 607.5,239.5C 609.177,230.622 608.511,221.955 605.5,213.5 Z"/></g>
<g><path style="opacity:1" fill="#1196f8" d="M 605.5,213.5 C 608.511,221.955 609.177,230.622 607.5,239.5C 606.67,244.16 605.003,248.493 602.5,252.5C 601.833,252.5 601.167,252.5 600.5,252.5C 594.889,241.493 592.723,229.826 594,217.5C 594.547,213.401 596.38,210.068 599.5,207.5C 601.854,209.188 603.854,211.188 605.5,213.5 Z"/></g>
<g><path style="opacity:1" fill="#1e95f5" d="M 253.5,251.5 C 252.391,251.443 251.391,251.11 250.5,250.5C 246.876,243.459 244.543,235.959 243.5,228C 243.502,219.173 247.169,212.34 254.5,207.5C 259.257,212.1 261.257,217.767 260.5,224.5C 260.305,234.174 257.972,243.174 253.5,251.5 Z"/></g>
<g><path style="opacity:1" fill="#66afe6" d="M 345.5,250.5 C 345.167,251.167 344.833,251.833 344.5,252.5C 342.774,252.815 341.107,252.981 339.5,253C 340.06,249.877 341.06,246.877 342.5,244C 342.355,243.228 342.022,242.561 341.5,242C 339.087,241.516 336.754,241.85 334.5,243C 332.963,244.707 331.296,246.207 329.5,247.5C 331.301,243.043 334.634,240.376 339.5,239.5C 342.065,239.899 343.399,241.399 343.5,244C 343.135,246.261 342.469,248.427 341.5,250.5C 342.7,251.292 344.033,251.292 345.5,250.5 Z"/></g>
<g><path style="opacity:1" fill="#0594fd" d="M 527.5,245.5 C 527.5,245.833 527.5,246.167 527.5,246.5C 526.817,248.176 525.483,248.843 523.5,248.5C 523.5,250.167 523.5,251.833 523.5,253.5C 524.833,253.5 526.167,253.5 527.5,253.5C 527.941,259.407 527.941,265.407 527.5,271.5C 522.125,271.828 516.792,271.495 511.5,270.5C 508.833,269.167 508.833,267.833 511.5,266.5C 510.975,265.808 510.308,265.308 509.5,265C 510.756,264.583 511.423,263.75 511.5,262.5C 511.5,262.167 511.5,261.833 511.5,261.5C 511.297,259.956 510.63,258.622 509.5,257.5C 510.684,255.954 511.684,254.287 512.5,252.5C 515.166,253.738 517.832,253.738 520.5,252.5C 519.855,251.354 519.022,250.354 518,249.5C 517.383,246.824 518.216,246.157 520.5,247.5C 523.461,246.817 523.795,245.984 521.5,245C 523.724,242.851 525.224,243.351 526,246.5C 526.383,245.944 526.883,245.611 527.5,245.5 Z"/></g>
<g><path style="opacity:1" fill="#359aed" d="M 527.5,245.5 C 526.883,245.611 526.383,245.944 526,246.5C 525.224,243.351 523.724,242.851 521.5,245C 523.795,245.984 523.461,246.817 520.5,247.5C 518.216,246.157 517.383,246.824 518,249.5C 519.022,250.354 519.855,251.354 520.5,252.5C 517.832,253.738 515.166,253.738 512.5,252.5C 511.684,254.287 510.684,255.954 509.5,257.5C 510.63,258.622 511.297,259.956 511.5,261.5C 506.514,259.943 504.348,256.61 505,251.5C 506.126,250.056 507.626,249.39 509.5,249.5C 512.012,249.994 514.345,250.994 516.5,252.5C 515.502,248.512 515.502,244.346 516.5,240C 520.905,240.203 524.572,242.036 527.5,245.5 Z"/></g>
<g><path style="opacity:1" fill="#0f95fb" d="M 344.5,252.5 C 344.833,251.833 345.167,251.167 345.5,250.5C 351.411,248.926 353.911,251.259 353,257.5C 350.674,259.066 348.508,260.732 346.5,262.5C 343.127,263.064 339.46,263.397 335.5,263.5C 335.5,264.833 335.5,266.167 335.5,267.5C 340.916,266.129 346.25,266.462 351.5,268.5C 350.264,269.357 348.931,270.023 347.5,270.5C 343.185,269.225 338.851,269.225 334.5,270.5C 337.107,271.318 339.774,271.818 342.5,272C 335.167,272.667 327.833,272.667 320.5,272C 321.92,270.47 322.92,268.637 323.5,266.5C 325.636,267.472 326.803,269.139 327,271.5C 327.29,269.956 327.956,268.623 329,267.5C 330.688,268.325 330.855,269.325 329.5,270.5C 330.689,271.429 332.022,271.762 333.5,271.5C 331.661,268.013 329.994,264.347 328.5,260.5C 327.376,262.369 326.543,264.369 326,266.5C 324.85,264.246 324.516,261.913 325,259.5C 326.256,257.246 327.423,254.912 328.5,252.5C 330.193,251.772 331.693,250.772 333,249.5C 335.435,251.437 335.602,253.27 333.5,255C 334.126,255.75 334.626,256.584 335,257.5C 335.368,256.09 336.201,255.09 337.5,254.5C 339.747,255.374 342.08,255.708 344.5,255.5C 344.5,254.5 344.5,253.5 344.5,252.5 Z"/></g>
<g><path style="opacity:1" fill="#2097f5" d="M 527.5,246.5 C 533.296,253.771 536.629,262.104 537.5,271.5C 536.833,272.167 536.167,272.833 535.5,273.5C 524.025,274.124 512.691,273.291 501.5,271C 498.833,268.667 498.833,266.333 501.5,264C 504.726,262.801 508.059,262.301 511.5,262.5C 511.423,263.75 510.756,264.583 509.5,265C 510.308,265.308 510.975,265.808 511.5,266.5C 508.833,267.833 508.833,269.167 511.5,270.5C 516.792,271.495 522.125,271.828 527.5,271.5C 527.941,265.407 527.941,259.407 527.5,253.5C 526.167,253.5 524.833,253.5 523.5,253.5C 523.5,251.833 523.5,250.167 523.5,248.5C 525.483,248.843 526.817,248.176 527.5,246.5 Z"/></g>
<g><path style="opacity:1" fill="#2497f2" d="M 344.5,252.5 C 344.5,253.5 344.5,254.5 344.5,255.5C 342.08,255.708 339.747,255.374 337.5,254.5C 336.201,255.09 335.368,256.09 335,257.5C 334.626,256.584 334.126,255.75 333.5,255C 335.602,253.27 335.435,251.437 333,249.5C 331.693,250.772 330.193,251.772 328.5,252.5C 327.423,254.912 326.256,257.246 325,259.5C 324.516,261.913 324.85,264.246 326,266.5C 326.543,264.369 327.376,262.369 328.5,260.5C 329.994,264.347 331.661,268.013 333.5,271.5C 332.022,271.762 330.689,271.429 329.5,270.5C 330.855,269.325 330.688,268.325 329,267.5C 327.956,268.623 327.29,269.956 327,271.5C 326.803,269.139 325.636,267.472 323.5,266.5C 322.92,268.637 321.92,270.47 320.5,272C 327.833,272.667 335.167,272.667 342.5,272C 339.774,271.818 337.107,271.318 334.5,270.5C 338.851,269.225 343.185,269.225 347.5,270.5C 348.931,270.023 350.264,269.357 351.5,268.5C 346.25,266.462 340.916,266.129 335.5,267.5C 335.5,266.167 335.5,264.833 335.5,263.5C 339.46,263.397 343.127,263.064 346.5,262.5C 349.978,262.184 353.312,262.684 356.5,264C 358.35,265.845 358.683,267.845 357.5,270C 353.971,271.466 350.305,272.466 346.5,273C 336.816,273.168 327.149,273.668 317.5,274.5C 315.477,276.853 313.477,279.186 311.5,281.5C 310.662,281.158 310.328,280.492 310.5,279.5C 312.486,275.514 315.486,272.514 319.5,270.5C 322.088,262.367 325.421,254.701 329.5,247.5C 331.296,246.207 332.963,244.707 334.5,243C 336.754,241.85 339.087,241.516 341.5,242C 342.022,242.561 342.355,243.228 342.5,244C 341.06,246.877 340.06,249.877 339.5,253C 341.107,252.981 342.774,252.815 344.5,252.5 Z"/></g>
<g><path style="opacity:1" fill="#5ea5d1" d="M 600.5,252.5 C 601.167,252.5 601.833,252.5 602.5,252.5C 603.902,264.344 603.569,276.01 601.5,287.5C 600.662,287.158 600.328,286.492 600.5,285.5C 600.5,274.5 600.5,263.5 600.5,252.5 Z"/></g>
<g><path style="opacity:1" fill="#51a0de" d="M 308.5,224.5 C 308.5,225.167 308.833,225.5 309.5,225.5C 281.531,261.937 271.031,302.937 278,348.5C 283.76,326.875 292.426,306.542 304,287.5C 306.031,284.645 308.197,281.978 310.5,279.5C 310.328,280.492 310.662,281.158 311.5,281.5C 304.914,290.334 299.081,299.667 294,309.5C 281.09,341.032 272.09,373.699 267,407.5C 262.83,433.698 259.83,460.032 258,486.5C 256.513,487.741 255.68,487.241 255.5,485C 257.833,450.829 262.5,416.996 269.5,383.5C 257.186,340.023 250.852,295.689 250.5,250.5C 251.391,251.11 252.391,251.443 253.5,251.5C 253.147,294.325 258.647,336.325 270,377.5C 272.685,369.922 274.519,362.088 275.5,354C 268.656,312.226 276.156,273.393 298,237.5C 300.985,232.689 304.485,228.356 308.5,224.5 Z"/></g>
<g><path style="opacity:1" fill="#695e5b" d="M 485.5,292.5 C 489.353,293.345 492.019,295.679 493.5,299.5C 492.807,300.518 492.141,301.518 491.5,302.5C 484.93,302.037 482.93,298.704 485.5,292.5 Z"/></g>
<g><path style="opacity:1" fill="#f0e4de" d="M 486.5,293.5 C 489.364,295.023 491.031,297.357 491.5,300.5C 486.222,300.572 484.555,298.238 486.5,293.5 Z"/></g>
<g><path style="opacity:1" fill="#534743" d="M 480.5,300.5 C 481.5,300.833 482.167,301.5 482.5,302.5C 481.504,302.414 480.671,302.748 480,303.5C 479.322,305.598 479.489,307.598 480.5,309.5C 478.879,309.213 477.879,308.213 477.5,306.5C 478.129,304.259 479.129,302.259 480.5,300.5 Z"/></g>
<g><path style="opacity:1" fill="#54453f" d="M 484.5,312.5 C 482.469,312.972 480.802,313.972 479.5,315.5C 475.656,318.088 471.822,318.088 468,315.5C 467.252,317.751 465.752,319.084 463.5,319.5C 461.164,318.155 459.497,316.155 458.5,313.5C 459.313,312.186 460.313,311.019 461.5,310C 458.975,306.469 455.641,304.135 451.5,303C 453.635,302.365 455.635,302.699 457.5,304C 461.457,308.959 466.29,312.792 472,315.5C 472.5,315.333 473,315.167 473.5,315C 471.392,312.984 471.058,310.817 472.5,308.5C 470.015,303.85 466.348,300.35 461.5,298C 461.833,297.833 462.167,297.667 462.5,297.5C 468.616,301.12 473.95,305.62 478.5,311C 480.345,312.128 482.345,312.628 484.5,312.5 Z"/></g>
<g><path style="opacity:1" fill="#4e9ace" d="M 337.5,309.5 C 349.655,308.505 361.989,308.171 374.5,308.5C 374.768,310.099 374.434,311.432 373.5,312.5C 373.5,311.5 373.5,310.5 373.5,309.5C 361.5,309.5 349.5,309.5 337.5,309.5 Z"/></g>
<g><path style="opacity:1" fill="#ece1d6" d="M 482.5,302.5 C 483.455,304.746 484.122,307.079 484.5,309.5C 483.167,309.5 481.833,309.5 480.5,309.5C 479.489,307.598 479.322,305.598 480,303.5C 480.671,302.748 481.504,302.414 482.5,302.5 Z"/></g>
<g><path style="opacity:1" fill="#eee1da" d="M 472.5,308.5 C 474.809,309.388 476.476,311.054 477.5,313.5C 476.635,314.583 475.635,314.749 474.5,314C 473.139,312.416 472.472,310.582 472.5,308.5 Z"/></g>
<g><path style="opacity:1" fill="#5e5548" d="M 482.5,302.5 C 483.728,303.306 484.728,304.306 485.5,305.5C 486.11,306.391 486.443,307.391 486.5,308.5C 486.5,308.833 486.5,309.167 486.5,309.5C 485.833,310.5 485.167,311.5 484.5,312.5C 483.167,311.5 481.833,310.5 480.5,309.5C 481.833,309.5 483.167,309.5 484.5,309.5C 484.122,307.079 483.455,304.746 482.5,302.5 Z"/></g>
<g><path style="opacity:1" fill="#349be6" d="M 486.5,309.5 C 486.5,309.167 486.5,308.833 486.5,308.5C 497.014,308.172 507.347,308.506 517.5,309.5C 509.5,309.5 501.5,309.5 493.5,309.5C 493.5,310.833 493.5,312.167 493.5,313.5C 492.167,313.5 490.833,313.5 489.5,313.5C 489.5,312.167 489.5,310.833 489.5,309.5C 488.5,309.5 487.5,309.5 486.5,309.5 Z"/></g>
<g><path style="opacity:1" fill="#1695f6" d="M 337.5,309.5 C 349.5,309.5 361.5,309.5 373.5,309.5C 373.5,310.5 373.5,311.5 373.5,312.5C 373.34,314.153 372.674,315.486 371.5,316.5C 368.571,319.822 366.071,323.489 364,327.5C 363.187,329.436 362.687,331.436 362.5,333.5C 362.672,334.492 362.338,335.158 361.5,335.5C 361.167,335.5 360.833,335.5 360.5,335.5C 360.17,331.979 358.67,328.979 356,326.5C 355.667,326.833 355.333,327.167 355,327.5C 354.134,323.193 353.134,322.86 352,326.5C 351.503,324.19 351.337,321.857 351.5,319.5C 348.517,319.102 345.517,318.768 342.5,318.5C 338.53,318.667 334.863,319.667 331.5,321.5C 331.5,322.833 331.5,324.167 331.5,325.5C 332.833,325.5 334.167,325.5 335.5,325.5C 333.983,328.587 333.316,331.921 333.5,335.5C 332.5,335.5 331.5,335.5 330.5,335.5C 330.884,333.335 330.217,331.668 328.5,330.5C 327.548,332.045 327.215,333.712 327.5,335.5C 325.151,335.542 323.818,334.375 323.5,332C 324.608,329.888 326.108,328.054 328,326.5C 328.758,324.231 328.591,322.064 327.5,320C 330.028,319.002 330.028,318.169 327.5,317.5C 326.558,317.608 325.725,317.941 325,318.5C 324.843,320.995 324.676,323.328 324.5,325.5C 322.939,326.347 321.439,326.014 320,324.5C 319.257,327.192 318.09,329.525 316.5,331.5C 318.73,319.604 325.73,312.271 337.5,309.5 Z"/></g>
<g><path style="opacity:1" fill="#0c94fb" d="M 360.5,335.5 C 356.675,341.482 353.675,347.815 351.5,354.5C 349.057,357.052 347.39,360.052 346.5,363.5C 344.659,365.849 343.326,368.515 342.5,371.5C 342.672,372.492 342.338,373.158 341.5,373.5C 340.035,374.406 339.035,375.739 338.5,377.5C 337.675,378.386 336.675,378.719 335.5,378.5C 325.681,377.506 315.681,377.173 305.5,377.5C 305.5,375.167 305.5,372.833 305.5,370.5C 308.546,357.235 312.213,344.235 316.5,331.5C 318.09,329.525 319.257,327.192 320,324.5C 321.439,326.014 322.939,326.347 324.5,325.5C 324.676,323.328 324.843,320.995 325,318.5C 325.725,317.941 326.558,317.608 327.5,317.5C 330.028,318.169 330.028,319.002 327.5,320C 328.591,322.064 328.758,324.231 328,326.5C 326.108,328.054 324.608,329.888 323.5,332C 323.818,334.375 325.151,335.542 327.5,335.5C 327.215,333.712 327.548,332.045 328.5,330.5C 330.217,331.668 330.884,333.335 330.5,335.5C 331.5,335.5 332.5,335.5 333.5,335.5C 333.316,331.921 333.983,328.587 335.5,325.5C 334.167,325.5 332.833,325.5 331.5,325.5C 331.5,324.167 331.5,322.833 331.5,321.5C 334.863,319.667 338.53,318.667 342.5,318.5C 345.517,318.768 348.517,319.102 351.5,319.5C 351.337,321.857 351.503,324.19 352,326.5C 353.134,322.86 354.134,323.193 355,327.5C 355.333,327.167 355.667,326.833 356,326.5C 358.67,328.979 360.17,331.979 360.5,335.5 Z"/></g>
<g><path style="opacity:1" fill="#f7e1d9" d="M 471.5,236.5 C 471.192,238.924 471.526,241.257 472.5,243.5C 476.509,244.748 479.676,247.082 482,250.5C 482.494,252.134 482.66,253.801 482.5,255.5C 481.5,255.5 480.5,255.5 479.5,255.5C 479.785,257.288 479.452,258.955 478.5,260.5C 475.442,262.141 472.108,262.974 468.5,263C 465.011,269.251 460.011,273.918 453.5,277C 462.675,281.01 471.841,284.843 481,288.5C 481.333,288.167 481.667,287.833 482,287.5C 483.755,289.146 484.922,290.813 485.5,292.5C 482.93,298.704 484.93,302.037 491.5,302.5C 489.249,303.015 487.249,304.015 485.5,305.5C 484.728,304.306 483.728,303.306 482.5,302.5C 482.167,301.5 481.5,300.833 480.5,300.5C 479.129,302.259 478.129,304.259 477.5,306.5C 477.879,308.213 478.879,309.213 480.5,309.5C 481.833,310.5 483.167,311.5 484.5,312.5C 482.345,312.628 480.345,312.128 478.5,311C 473.95,305.62 468.616,301.12 462.5,297.5C 462.167,297.667 461.833,297.833 461.5,298C 466.348,300.35 470.015,303.85 472.5,308.5C 471.058,310.817 471.392,312.984 473.5,315C 473,315.167 472.5,315.333 472,315.5C 466.29,312.792 461.457,308.959 457.5,304C 455.635,302.699 453.635,302.365 451.5,303C 455.641,304.135 458.975,306.469 461.5,310C 460.313,311.019 459.313,312.186 458.5,313.5C 459.497,316.155 461.164,318.155 463.5,319.5C 465.752,319.084 467.252,317.751 468,315.5C 471.822,318.088 475.656,318.088 479.5,315.5C 480.167,316.833 480.833,318.167 481.5,319.5C 486.683,328.545 492.349,337.212 498.5,345.5C 499.475,347.795 500.808,349.795 502.5,351.5C 504.747,357.001 507.747,362.001 511.5,366.5C 512.026,368.23 513.026,369.564 514.5,370.5C 516.344,374.864 518.677,378.864 521.5,382.5C 525.491,389.811 529.991,396.811 535,403.5C 535.315,402.092 534.982,400.759 534,399.5C 530.248,393.931 526.748,388.264 523.5,382.5C 533.532,384.172 543.532,385.839 553.5,387.5C 554.769,392.988 556.603,398.322 559,403.5C 560.901,414.898 563.234,426.231 566,437.5C 570.484,447.31 572.984,457.643 573.5,468.5C 573.046,478.135 568.379,484.968 559.5,489C 547.167,489.667 534.833,489.667 522.5,489C 521.022,486.961 519.022,486.128 516.5,486.5C 514.771,485.883 513.271,484.883 512,483.5C 509.543,479.902 507.376,476.235 505.5,472.5C 493.246,445.424 480.58,418.424 467.5,391.5C 459.699,374.106 451.699,356.773 443.5,339.5C 437.632,338.889 431.965,337.555 426.5,335.5C 425.448,335.351 424.448,335.517 423.5,336C 420.133,339.703 416.466,343.036 412.5,346C 411.207,346.49 409.873,346.657 408.5,346.5C 407.127,346.657 405.793,346.49 404.5,346C 406.167,345.167 407.833,344.333 409.5,343.5C 410.631,341.926 410.798,340.259 410,338.5C 409.42,342.426 407.253,343.926 403.5,343C 404.758,341.259 405.758,339.426 406.5,337.5C 404.092,339.916 401.426,341.916 398.5,343.5C 400.973,343.736 402.64,345.069 403.5,347.5C 404.736,348.246 406.07,348.579 407.5,348.5C 405.472,353.759 402.972,358.759 400,363.5C 399.51,364.793 399.343,366.127 399.5,367.5C 396.398,373.704 393.231,380.037 390,386.5C 387.921,390.652 386.421,394.986 385.5,399.5C 382.254,405.358 379.088,411.358 376,417.5C 370.433,432.461 364.266,447.127 357.5,461.5C 354.926,465.878 352.926,470.544 351.5,475.5C 349.461,476.911 348.461,478.911 348.5,481.5C 347.448,481.351 346.448,481.517 345.5,482C 344.238,484.276 342.571,486.109 340.5,487.5C 338.821,487.285 337.821,487.952 337.5,489.5C 324.829,489.667 312.162,489.5 299.5,489C 297.122,488.489 294.788,487.822 292.5,487C 289.292,484.451 286.792,481.284 285,477.5C 281.951,465.962 283.451,455.128 289.5,445C 293.414,427.855 296.914,410.688 300,393.5C 301.213,391.075 302.379,388.741 303.5,386.5C 313.05,386.15 323.05,384.817 333.5,382.5C 334.167,382.833 334.833,383.167 335.5,383.5C 333.71,386.388 332.543,389.388 332,392.5C 334.65,388.867 336.483,384.867 337.5,380.5C 339.588,378.664 340.921,376.331 341.5,373.5C 342.338,373.158 342.672,372.492 342.5,371.5C 344.873,369.421 346.206,366.754 346.5,363.5C 348.924,360.992 350.59,357.992 351.5,354.5C 355.594,348.649 358.927,342.315 361.5,335.5C 362.338,335.158 362.672,334.492 362.5,333.5C 365.861,328.108 368.861,322.442 371.5,316.5C 372.674,315.486 373.34,314.153 373.5,312.5C 374.434,311.432 374.768,310.099 374.5,308.5C 377.531,306.806 379.364,304.14 380,300.5C 384.696,293.812 389.363,287.146 394,280.5C 397.214,278.036 400.714,276.036 404.5,274.5C 399.923,271.092 396.256,266.926 393.5,262C 390.599,262.234 387.599,261.901 384.5,261C 383.594,259.301 383.261,257.467 383.5,255.5C 382.5,255.5 381.5,255.5 380.5,255.5C 380.249,250.559 381.915,246.559 385.5,243.5C 394.245,248.208 403.578,249.708 413.5,248C 425.445,243.78 435.611,236.947 444,227.5C 444.438,230.376 445.438,233.043 447,235.5C 453.696,241.345 461.53,244.345 470.5,244.5C 470.194,241.615 470.527,238.948 471.5,236.5 Z"/></g>
<g><path style="opacity:1" fill="#5d4d46" d="M 451.5,314.5 C 454.004,316.144 456.671,317.644 459.5,319C 460.793,319.49 462.127,319.657 463.5,319.5C 458.289,321.24 454.289,319.573 451.5,314.5 Z"/></g>
<g><path style="opacity:1" fill="#e9dbd2" d="M 461.5,311.5 C 462.496,311.414 463.329,311.748 464,312.5C 467.252,317.249 466.252,318.249 461,315.5C 460.421,314.072 460.588,312.738 461.5,311.5 Z"/></g>
<g><path style="opacity:1" fill="#6a5853" d="M 451.5,314.5 C 447.236,310.889 442.236,309.555 436.5,310.5C 440.78,307.835 445.113,308.001 449.5,311C 450.823,311.816 451.489,312.983 451.5,314.5 Z"/></g>
<g><path style="opacity:1" fill="#5a4a43" d="M 406.5,306.5 C 407.946,305.387 409.613,305.22 411.5,306C 419.199,311.169 427.533,312.669 436.5,310.5C 435.737,311.268 434.737,311.768 433.5,312C 429.5,312.667 425.5,312.667 421.5,312C 416.423,310.117 411.423,308.284 406.5,306.5 Z"/></g>
<g><path style="opacity:1" fill="#4d3932" d="M 406.5,306.5 C 405.201,308.099 403.535,308.599 401.5,308C 403.025,306.991 404.692,306.491 406.5,306.5 Z"/></g>
<g><path style="opacity:1" fill="#54413c" d="M 480.5,300.5 C 475.037,295.929 469.037,292.095 462.5,289C 469.034,290.163 474.7,293.163 479.5,298C 480.252,298.671 480.586,299.504 480.5,300.5 Z"/></g>
<g><path style="opacity:1" fill="#54453e" d="M 424.5,271.5 C 431.536,272.003 438.536,272.837 445.5,274C 448.251,274.516 450.584,275.683 452.5,277.5C 452.333,277.833 452.167,278.167 452,278.5C 446.848,275.836 441.348,274.336 435.5,274C 426.152,273.651 416.819,273.651 407.5,274C 413.303,273.109 418.97,272.275 424.5,271.5 Z"/></g>
<g><path style="opacity:1" fill="#645149" d="M 423.5,263.5 C 423.56,262.957 423.893,262.624 424.5,262.5C 428.712,264.538 433.046,265.038 437.5,264C 432.724,266.095 428.057,265.928 423.5,263.5 Z"/></g>
<g><path style="opacity:1" fill="#59473f" d="M 473.5,254.5 C 474.756,254.461 475.756,254.961 476.5,256C 475.002,256.585 474.002,256.085 473.5,254.5 Z"/></g>
<g><path style="opacity:1" fill="#4b3934" d="M 385.5,249.5 C 387.14,250.32 388.807,251.153 390.5,252C 391.451,252.718 391.617,253.551 391,254.5C 386.268,257.232 385.768,256.898 389.5,253.5C 387.231,252.995 385.897,251.662 385.5,249.5 Z"/></g>
<g><path style="opacity:1" fill="#241a15" d="M 430.5,246.5 C 431.473,248.948 431.806,251.615 431.5,254.5C 429.549,254.227 428.049,254.893 427,256.5C 426.517,255.552 426.351,254.552 426.5,253.5C 427.833,253.5 429.167,253.5 430.5,253.5C 430.5,251.167 430.5,248.833 430.5,246.5 Z"/></g>
<g><path style="opacity:1" fill="#3b2c25" d="M 473.5,254.5 C 471.451,254.294 471.117,253.461 472.5,252C 474.044,250.813 475.711,250.48 477.5,251C 475.456,251.498 474.122,252.665 473.5,254.5 Z"/></g>
<g><path style="opacity:1" fill="#62504b" d="M 445.5,251.5 C 443.544,252.801 441.877,252.301 440.5,250C 442.282,249.878 443.948,250.378 445.5,251.5 Z"/></g>
<g><path style="opacity:1" fill="#705d57" d="M 421.5,248.5 C 422.239,248.369 422.906,248.536 423.5,249C 420.866,252.617 417.866,253.117 414.5,250.5C 416.343,250.245 418.343,250.078 420.5,250C 421.056,249.617 421.389,249.117 421.5,248.5 Z"/></g>
<g><path style="opacity:1" fill="#42322d" d="M 445.5,251.5 C 446.002,249.915 447.002,249.415 448.5,250C 447.756,251.039 446.756,251.539 445.5,251.5 Z"/></g>
<g><path style="opacity:1" fill="#271815" d="M 441.5,241.5 C 443.927,241.523 446.26,242.023 448.5,243C 445.5,243.667 442.5,243.667 439.5,243C 440.416,242.722 441.082,242.222 441.5,241.5 Z"/></g>
<g><path style="opacity:1" fill="#796761" d="M 405.5,325.5 C 406.659,323.623 408.326,323.123 410.5,324C 409.095,325.269 407.429,325.769 405.5,325.5 Z"/></g>
<g><path style="opacity:1" fill="#445a65" d="M 481.5,319.5 C 489.161,326.81 494.827,335.477 498.5,345.5C 492.349,337.212 486.683,328.545 481.5,319.5 Z"/></g>
<g><path style="opacity:1" fill="#54433c" d="M 390.5,334.5 C 390.884,332.335 390.217,330.668 388.5,329.5C 386.918,331.015 385.584,332.681 384.5,334.5C 382.993,333.025 381.327,331.691 379.5,330.5C 381.527,330.662 383.527,330.495 385.5,330C 389.909,324.92 394.909,320.586 400.5,317C 402.754,315.85 405.087,315.516 407.5,316C 400.433,318.401 394.433,322.401 389.5,328C 391.608,330.016 391.942,332.183 390.5,334.5 Z"/></g>
<g><path style="opacity:1" fill="#384154" d="M 371.5,316.5 C 368.861,322.442 365.861,328.108 362.5,333.5C 362.687,331.436 363.187,329.436 364,327.5C 366.071,323.489 368.571,319.822 371.5,316.5 Z"/></g>
<g><path style="opacity:1" fill="#493b35" d="M 379.5,330.5 C 375.745,328.123 375.579,325.456 379,322.5C 378.981,324.107 378.815,325.774 378.5,327.5C 381.532,327.822 383.199,326.489 383.5,323.5C 383.291,322.006 382.624,320.839 381.5,320C 383.08,317.705 385.08,316.372 387.5,316C 386.313,317.019 385.313,318.186 384.5,319.5C 385.544,321.768 385.711,324.101 385,326.5C 382.869,327.615 381.035,328.948 379.5,330.5 Z"/></g>
<g><path style="opacity:1" fill="#e8d9d0" d="M 390.5,334.5 C 388.359,337.019 386.359,337.019 384.5,334.5C 385.584,332.681 386.918,331.015 388.5,329.5C 390.217,330.668 390.884,332.335 390.5,334.5 Z"/></g>
<g><path style="opacity:1" fill="#66524b" d="M 406.5,337.5 C 408.454,332.365 412.12,329.865 417.5,330C 415.754,330.471 414.087,331.138 412.5,332C 410.584,334.09 408.584,335.923 406.5,337.5 Z"/></g>
<g><path style="opacity:1" fill="#161318" d="M 426.5,335.5 C 431.965,337.555 437.632,338.889 443.5,339.5C 451.699,356.773 459.699,374.106 467.5,391.5C 462.245,384.4 456.745,377.4 451,370.5C 450.517,369.552 450.351,368.552 450.5,367.5C 449.5,367.5 448.5,367.5 447.5,367.5C 444.757,360.739 440.757,354.739 435.5,349.5C 432.866,344.602 429.866,339.936 426.5,335.5 Z"/></g>
<g><path style="opacity:1" fill="#363c4a" d="M 360.5,335.5 C 360.833,335.5 361.167,335.5 361.5,335.5C 358.927,342.315 355.594,348.649 351.5,354.5C 353.675,347.815 356.675,341.482 360.5,335.5 Z"/></g>
<g><path style="opacity:1" fill="#443630" d="M 405.5,325.5 C 403.038,328.464 400.371,331.297 397.5,334C 398.554,335.388 398.72,336.888 398,338.5C 397.751,337.376 397.251,336.376 396.5,335.5C 393.929,336.728 392.595,338.728 392.5,341.5C 395.598,341.413 395.932,341.913 393.5,343C 395.134,343.494 396.801,343.66 398.5,343.5C 395.316,345.188 392.65,344.521 390.5,341.5C 388.922,340.702 387.256,340.202 385.5,340C 383.447,338.322 383.113,336.489 384.5,334.5C 386.359,337.019 388.359,337.019 390.5,334.5C 390.586,335.496 390.252,336.329 389.5,337C 385.02,337.293 384.687,338.126 388.5,339.5C 389.5,339 390.5,338.5 391.5,338C 395.583,333.134 400.25,328.967 405.5,325.5 Z"/></g>
<g><path style="opacity:1" fill="#544e4b" d="M 406.5,337.5 C 405.758,339.426 404.758,341.259 403.5,343C 407.253,343.926 409.42,342.426 410,338.5C 410.798,340.259 410.631,341.926 409.5,343.5C 407.833,344.333 406.167,345.167 404.5,346C 405.793,346.49 407.127,346.657 408.5,346.5C 408.167,347.167 407.833,347.833 407.5,348.5C 406.07,348.579 404.736,348.246 403.5,347.5C 402.64,345.069 400.973,343.736 398.5,343.5C 401.426,341.916 404.092,339.916 406.5,337.5 Z"/></g>
<g><path style="opacity:1" fill="#53a0dd" d="M 546.5,215.5 C 545.865,218.493 545.699,221.493 546,224.5C 565.919,248.901 577.252,276.901 580,308.5C 580.406,325.531 580.073,342.531 579,359.5C 580.514,365.223 582.18,370.89 584,376.5C 591.678,346.421 597.178,316.088 600.5,285.5C 600.328,286.492 600.662,287.158 601.5,287.5C 598.884,320.092 593.218,352.258 584.5,384C 588.455,399.605 590.788,415.438 591.5,431.5C 590.778,431.082 590.278,430.416 590,429.5C 585.403,382.77 573.07,338.437 553,296.5C 547.654,288.479 541.82,280.812 535.5,273.5C 536.167,272.833 536.833,272.167 537.5,271.5C 540.757,275.935 544.257,280.268 548,284.5C 560.566,304.31 569.9,325.644 576,348.5C 582.938,302.584 572.438,261.584 544.5,225.5C 544.336,222.813 544.503,220.146 545,217.5C 545.278,216.584 545.778,215.918 546.5,215.5 Z"/></g>
<g><path style="opacity:1" fill="#1f3355" d="M 498.5,345.5 C 500.982,346.663 502.316,348.663 502.5,351.5C 500.808,349.795 499.475,347.795 498.5,345.5 Z"/></g>
<g><path style="opacity:1" fill="#0595fd" d="M 435.5,349.5 C 440.757,354.739 444.757,360.739 447.5,367.5C 448.5,367.5 449.5,367.5 450.5,367.5C 450.351,368.552 450.517,369.552 451,370.5C 456.745,377.4 462.245,384.4 467.5,391.5C 480.58,418.424 493.246,445.424 505.5,472.5C 507.124,477.533 508.624,482.533 510,487.5C 457.37,487.823 404.537,487.49 351.5,486.5C 349.613,485.334 347.947,484.668 346.5,484.5C 349.991,482.517 351.658,479.517 351.5,475.5C 352.926,470.544 354.926,465.878 357.5,461.5C 358.467,462.806 359.801,463.473 361.5,463.5C 361.351,464.552 361.517,465.552 362,466.5C 362.828,462.534 363.328,458.534 363.5,454.5C 364.5,454.5 365.5,454.5 366.5,454.5C 366.617,452.516 365.95,450.85 364.5,449.5C 364.894,446.865 366.061,446.199 368,447.5C 370.677,446.251 372.511,444.251 373.5,441.5C 374.833,442.5 376.167,443.5 377.5,444.5C 378.524,443.147 379.857,442.48 381.5,442.5C 381.899,445.988 382.566,446.154 383.5,443C 382.493,440.488 381.159,438.155 379.5,436C 381.016,432.51 382.182,432.677 383,436.5C 383.494,434.866 383.66,433.199 383.5,431.5C 382.325,431.719 381.325,431.386 380.5,430.5C 383.031,428.406 383.864,425.739 383,422.5C 382.667,422.833 382.333,423.167 382,423.5C 381.626,421.133 380.459,419.3 378.5,418C 378.667,417.5 378.833,417 379,416.5C 379.423,417.956 380.256,418.456 381.5,418C 382.313,416.686 383.313,415.519 384.5,414.5C 380.664,411.949 380.664,409.282 384.5,406.5C 389.015,406.246 391.015,403.913 390.5,399.5C 388.833,399.5 387.167,399.5 385.5,399.5C 386.421,394.986 387.921,390.652 390,386.5C 393.231,380.037 396.398,373.704 399.5,367.5C 401.016,366.1 402.683,364.767 404.5,363.5C 405.167,363.833 405.833,364.167 406.5,364.5C 407.065,362.49 408.065,360.824 409.5,359.5C 409.833,358.667 410.167,357.833 410.5,357C 409.623,355.381 408.623,354.215 407.5,353.5C 408.26,351.563 409.26,349.73 410.5,348C 411.167,347.333 411.833,347.333 412.5,348C 413.071,349.205 413.738,350.372 414.5,351.5C 415.429,347.684 417.595,346.35 421,347.5C 421.71,346.027 422.876,345.36 424.5,345.5C 424.234,341.921 422.901,341.587 420.5,344.5C 420.167,344 419.833,343.5 419.5,343C 420.996,341.669 422.329,340.169 423.5,338.5C 424.251,339.376 424.751,340.376 425,341.5C 425.914,340.346 426.747,340.513 427.5,342C 426.74,343.441 426.074,344.941 425.5,346.5C 426.776,347.645 428.109,347.645 429.5,346.5C 430.79,348.657 431.624,350.99 432,353.5C 433.113,352.24 433.28,351.073 432.5,350C 433.448,349.517 434.448,349.351 435.5,349.5 Z"/></g>
<g><path style="opacity:1" fill="#0d94fa" d="M 486.5,309.5 C 487.5,309.5 488.5,309.5 489.5,309.5C 489.5,310.833 489.5,312.167 489.5,313.5C 490.833,313.5 492.167,313.5 493.5,313.5C 493.5,312.167 493.5,310.833 493.5,309.5C 501.5,309.5 509.5,309.5 517.5,309.5C 527.741,311.237 534.908,316.904 539,326.5C 541.221,332.662 542.721,338.996 543.5,345.5C 543.81,349.268 544.643,352.935 546,356.5C 546.383,357.056 546.883,357.389 547.5,357.5C 547.729,361.366 546.729,364.866 544.5,368C 546.134,368.494 547.801,368.66 549.5,368.5C 549.578,371.487 548.411,372.153 546,370.5C 544.941,370.63 544.108,371.13 543.5,372C 545.747,373.655 548.08,373.988 550.5,373C 551.38,374.356 551.714,375.856 551.5,377.5C 543.493,377.666 535.493,377.5 527.5,377C 524.947,375.344 522.281,375.177 519.5,376.5C 518.28,374.019 516.614,372.019 514.5,370.5C 513.026,369.564 512.026,368.23 511.5,366.5C 509.657,360.69 506.657,355.69 502.5,351.5C 502.316,348.663 500.982,346.663 498.5,345.5C 494.827,335.477 489.161,326.81 481.5,319.5C 480.833,318.167 480.167,316.833 479.5,315.5C 480.802,313.972 482.469,312.972 484.5,312.5C 485.167,311.5 485.833,310.5 486.5,309.5 Z"/></g>
<g><path style="opacity:1" fill="#3d475b" d="M 502.5,351.5 C 506.657,355.69 509.657,360.69 511.5,366.5C 507.747,362.001 504.747,357.001 502.5,351.5 Z"/></g>
<g><path style="opacity:1" fill="#509ed6" d="M 543.5,345.5 C 545.806,349.085 547.139,353.085 547.5,357.5C 546.883,357.389 546.383,357.056 546,356.5C 544.643,352.935 543.81,349.268 543.5,345.5 Z"/></g>
<g><path style="opacity:1" fill="#2d3445" d="M 351.5,354.5 C 350.59,357.992 348.924,360.992 346.5,363.5C 347.39,360.052 349.057,357.052 351.5,354.5 Z"/></g>
<g><path style="opacity:1" fill="#2695ee" d="M 426.5,335.5 C 429.866,339.936 432.866,344.602 435.5,349.5C 434.448,349.351 433.448,349.517 432.5,350C 433.28,351.073 433.113,352.24 432,353.5C 431.624,350.99 430.79,348.657 429.5,346.5C 428.109,347.645 426.776,347.645 425.5,346.5C 426.074,344.941 426.74,343.441 427.5,342C 426.747,340.513 425.914,340.346 425,341.5C 424.751,340.376 424.251,339.376 423.5,338.5C 422.329,340.169 420.996,341.669 419.5,343C 419.833,343.5 420.167,344 420.5,344.5C 422.901,341.587 424.234,341.921 424.5,345.5C 422.876,345.36 421.71,346.027 421,347.5C 417.595,346.35 415.429,347.684 414.5,351.5C 413.738,350.372 413.071,349.205 412.5,348C 411.833,347.333 411.167,347.333 410.5,348C 409.26,349.73 408.26,351.563 407.5,353.5C 408.623,354.215 409.623,355.381 410.5,357C 410.167,357.833 409.833,358.667 409.5,359.5C 408.065,360.824 407.065,362.49 406.5,364.5C 405.833,364.167 405.167,363.833 404.5,363.5C 402.683,364.767 401.016,366.1 399.5,367.5C 399.343,366.127 399.51,364.793 400,363.5C 402.972,358.759 405.472,353.759 407.5,348.5C 407.833,347.833 408.167,347.167 408.5,346.5C 409.873,346.657 411.207,346.49 412.5,346C 416.466,343.036 420.133,339.703 423.5,336C 424.448,335.517 425.448,335.351 426.5,335.5 Z"/></g>
<g><path style="opacity:1" fill="#223642" d="M 346.5,363.5 C 346.206,366.754 344.873,369.421 342.5,371.5C 343.326,368.515 344.659,365.849 346.5,363.5 Z"/></g>
<g><path style="opacity:1" fill="#508cca" d="M 305.5,370.5 C 305.5,372.833 305.5,375.167 305.5,377.5C 315.681,377.173 325.681,377.506 335.5,378.5C 325.833,378.5 316.167,378.5 306.5,378.5C 305.833,379.167 305.167,379.833 304.5,380.5C 303.027,376.899 303.361,373.566 305.5,370.5 Z"/></g>
<g><path style="opacity:1" fill="#4494d8" d="M 547.5,357.5 C 549.71,363.812 551.71,370.312 553.5,377C 553.164,378.03 552.497,378.53 551.5,378.5C 541.624,378.565 531.957,378.565 522.5,378.5C 520.973,378.573 519.973,377.906 519.5,376.5C 522.281,375.177 524.947,375.344 527.5,377C 535.493,377.5 543.493,377.666 551.5,377.5C 551.714,375.856 551.38,374.356 550.5,373C 548.08,373.988 545.747,373.655 543.5,372C 544.108,371.13 544.941,370.63 546,370.5C 548.411,372.153 549.578,371.487 549.5,368.5C 547.801,368.66 546.134,368.494 544.5,368C 546.729,364.866 547.729,361.366 547.5,357.5 Z"/></g>
<g><path style="opacity:1" fill="#141a2f" d="M 341.5,373.5 C 340.921,376.331 339.588,378.664 337.5,380.5C 336.883,380.611 336.383,380.944 336,381.5C 326.247,379.861 316.413,378.861 306.5,378.5C 316.167,378.5 325.833,378.5 335.5,378.5C 336.675,378.719 337.675,378.386 338.5,377.5C 339.035,375.739 340.035,374.406 341.5,373.5 Z"/></g>
<g><path style="opacity:1" fill="#170c17" d="M 522.5,378.5 C 531.957,378.565 541.624,378.565 551.5,378.5C 551.5,379.167 551.5,379.833 551.5,380.5C 551.5,381.5 551.5,382.5 551.5,383.5C 548.813,383.664 546.146,383.497 543.5,383C 544.938,382.781 546.271,382.281 547.5,381.5C 546.833,381.167 546.167,380.833 545.5,380.5C 540.942,381.461 536.276,381.795 531.5,381.5C 529.68,381.351 528.18,380.684 527,379.5C 524.955,381.043 523.455,380.71 522.5,378.5 Z"/></g>
<g><path style="opacity:1" fill="#1e1a18" d="M 306.5,378.5 C 316.413,378.861 326.247,379.861 336,381.5C 336.383,380.944 336.883,380.611 337.5,380.5C 336.483,384.867 334.65,388.867 332,392.5C 332.543,389.388 333.71,386.388 335.5,383.5C 334.833,383.167 334.167,382.833 333.5,382.5C 323.05,384.817 313.05,386.15 303.5,386.5C 303.517,384.435 303.85,382.435 304.5,380.5C 305.167,379.833 305.833,379.167 306.5,378.5 Z"/></g>
<g><path style="opacity:1" fill="#191d18" d="M 514.5,370.5 C 516.614,372.019 518.28,374.019 519.5,376.5C 519.973,377.906 520.973,378.573 522.5,378.5C 523.455,380.71 524.955,381.043 527,379.5C 528.18,380.684 529.68,381.351 531.5,381.5C 536.276,381.795 540.942,381.461 545.5,380.5C 546.167,380.833 546.833,381.167 547.5,381.5C 546.271,382.281 544.938,382.781 543.5,383C 546.146,383.497 548.813,383.664 551.5,383.5C 551.5,382.5 551.5,381.5 551.5,380.5C 552.407,382.657 553.073,384.99 553.5,387.5C 543.532,385.839 533.532,384.172 523.5,382.5C 522.833,382.5 522.167,382.5 521.5,382.5C 518.677,378.864 516.344,374.864 514.5,370.5 Z"/></g>
<g><path style="opacity:1" fill="#6b5a51" d="M 521.5,382.5 C 522.167,382.5 522.833,382.5 523.5,382.5C 526.748,388.264 530.248,393.931 534,399.5C 534.982,400.759 535.315,402.092 535,403.5C 529.991,396.811 525.491,389.811 521.5,382.5 Z"/></g>
<g><path style="opacity:1" fill="#1996f8" d="M 243.5,479.5 C 243.715,481.179 243.048,482.179 241.5,482.5C 241.271,480.567 240.438,478.9 239,477.5C 234.999,474.665 231.499,471.332 228.5,467.5C 226.558,463.424 226.058,459.091 227,454.5C 228.11,452.963 229.61,452.297 231.5,452.5C 231.219,448.812 230.719,445.145 230,441.5C 229.329,440.748 228.496,440.414 227.5,440.5C 220.83,434.733 213.996,429.066 207,423.5C 204.059,416.365 203.726,409.032 206,401.5C 208.282,398.043 211.448,396.043 215.5,395.5C 216.76,394.618 217.926,393.618 219,392.5C 216.342,380.491 220.175,371.491 230.5,365.5C 231.192,366.025 231.692,366.692 232,367.5C 237.189,404.703 241.023,442.036 243.5,479.5 Z"/></g>
<g><path style="opacity:1" fill="#1095fa" d="M 623.5,467.5 C 621.302,468.014 619.302,469.014 617.5,470.5C 617.704,469.471 617.204,468.471 616,467.5C 615.331,470.028 614.498,470.028 613.5,467.5C 619.021,464.019 618.355,462.686 611.5,463.5C 611.334,457.158 611.5,450.825 612,444.5C 612.333,445.5 612.667,446.5 613,447.5C 614.685,443.047 614.851,438.547 613.5,434C 615.657,422.601 616.657,411.101 616.5,399.5C 617.5,388.833 618.5,378.167 619.5,367.5C 625.677,367.487 629.844,370.487 632,376.5C 632.138,382.581 632.804,388.581 634,394.5C 646.147,397.53 650.48,405.196 647,417.5C 646,419.5 645,421.5 644,423.5C 636.4,429.096 629.4,435.43 623,442.5C 622.333,444.167 622.333,445.833 623,447.5C 628.413,452.915 629.413,458.915 626,465.5C 625.292,466.381 624.458,467.047 623.5,467.5 Z"/></g>
<g><path style="opacity:1" fill="#5c4b44" d="M 329.5,394.5 C 329.796,397.315 328.796,399.982 326.5,402.5C 326.167,402.333 325.833,402.167 325.5,402C 326.973,399.552 328.307,397.052 329.5,394.5 Z"/></g>
<g><path style="opacity:1" fill="#1c97f6" d="M 385.5,399.5 C 387.167,399.5 388.833,399.5 390.5,399.5C 391.015,403.913 389.015,406.246 384.5,406.5C 380.664,409.282 380.664,411.949 384.5,414.5C 383.313,415.519 382.313,416.686 381.5,418C 380.256,418.456 379.423,417.956 379,416.5C 378.833,417 378.667,417.5 378.5,418C 380.459,419.3 381.626,421.133 382,423.5C 382.333,423.167 382.667,422.833 383,422.5C 383.864,425.739 383.031,428.406 380.5,430.5C 381.325,431.386 382.325,431.719 383.5,431.5C 383.66,433.199 383.494,434.866 383,436.5C 382.182,432.677 381.016,432.51 379.5,436C 381.159,438.155 382.493,440.488 383.5,443C 382.566,446.154 381.899,445.988 381.5,442.5C 379.857,442.48 378.524,443.147 377.5,444.5C 376.167,443.5 374.833,442.5 373.5,441.5C 372.511,444.251 370.677,446.251 368,447.5C 366.061,446.199 364.894,446.865 364.5,449.5C 365.95,450.85 366.617,452.516 366.5,454.5C 365.5,454.5 364.5,454.5 363.5,454.5C 363.328,458.534 362.828,462.534 362,466.5C 361.517,465.552 361.351,464.552 361.5,463.5C 359.801,463.473 358.467,462.806 357.5,461.5C 364.266,447.127 370.433,432.461 376,417.5C 379.088,411.358 382.254,405.358 385.5,399.5 Z"/></g>
<g><path style="opacity:1" fill="#3498e2" d="M 227.5,440.5 C 228.496,440.414 229.329,440.748 230,441.5C 230.719,445.145 231.219,448.812 231.5,452.5C 229.61,452.297 228.11,452.963 227,454.5C 226.058,459.091 226.558,463.424 228.5,467.5C 225.678,465.358 224.012,462.525 223.5,459C 225.33,454.164 227.33,449.331 229.5,444.5C 229.248,442.927 228.582,441.594 227.5,440.5 Z"/></g>
<g><path style="opacity:1" fill="#5ca9dc" d="M 591.5,431.5 C 594.442,445.047 596.442,459.047 597.5,473.5C 596.778,473.082 596.278,472.416 596,471.5C 595.51,472.793 595.343,474.127 595.5,475.5C 593.515,461.031 592.182,446.364 591.5,431.5 Z"/></g>
<g><path style="opacity:1" fill="#2a99ed" d="M 616.5,399.5 C 616.657,411.101 615.657,422.601 613.5,434C 614.851,438.547 614.685,443.047 613,447.5C 612.667,446.5 612.333,445.5 612,444.5C 611.5,450.825 611.334,457.158 611.5,463.5C 618.355,462.686 619.021,464.019 613.5,467.5C 614.498,470.028 615.331,470.028 616,467.5C 617.204,468.471 617.704,469.471 617.5,470.5C 619.302,469.014 621.302,468.014 623.5,467.5C 620.019,471.17 616.186,474.503 612,477.5C 610.667,480.833 609.333,484.167 608,487.5C 609.189,457.885 612.022,428.552 616.5,399.5 Z"/></g>
<g><path style="opacity:1" fill="#2595ef" d="M 597.5,473.5 C 597.666,478.179 597.499,482.845 597,487.5C 595.844,483.582 595.344,479.582 595.5,475.5C 595.343,474.127 595.51,472.793 596,471.5C 596.278,472.416 596.778,473.082 597.5,473.5 Z"/></g>
<g><path style="opacity:1" fill="#5c9ec7" d="M 243.5,479.5 C 244.634,481.966 244.801,484.633 244,487.5C 243.153,485.807 242.32,484.14 241.5,482.5C 243.048,482.179 243.715,481.179 243.5,479.5 Z"/></g>
<g><path style="opacity:1" fill="#3198e9" d="M 505.5,472.5 C 507.376,476.235 509.543,479.902 512,483.5C 513.271,484.883 514.771,485.883 516.5,486.5C 516.842,487.338 517.508,487.672 518.5,487.5C 459.167,488.833 399.833,488.833 340.5,487.5C 342.571,486.109 344.238,484.276 345.5,482C 346.448,481.517 347.448,481.351 348.5,481.5C 348.461,478.911 349.461,476.911 351.5,475.5C 351.658,479.517 349.991,482.517 346.5,484.5C 347.947,484.668 349.613,485.334 351.5,486.5C 404.537,487.49 457.37,487.823 510,487.5C 508.624,482.533 507.124,477.533 505.5,472.5 Z"/></g>
<g><path style="opacity:1" fill="#89c1f0" d="M 340.5,487.5 C 399.833,488.833 459.167,488.833 518.5,487.5C 519.289,487.783 519.956,488.283 520.5,489C 459.501,489.5 398.501,489.667 337.5,489.5C 337.821,487.952 338.821,487.285 340.5,487.5 Z"/></g>
</svg>
