<svg version="1.1" id="Layer_1" xmlns="http://www.w3.org/2000/svg" xmlns:xlink="http://www.w3.org/1999/xlink" x="0px" y="0px"
	 width="100%" viewBox="0 0 1246 1005" enable-background="new 0 0 1246 1005" xml:space="preserve">
<path fill="#FFFFFF" opacity="1.000000" stroke="none" 
	d="
M613.000000,1006.000000 
	C408.689270,1006.000000 204.878525,1006.000000 1.033897,1006.000000 
	C1.033897,671.059753 1.033897,336.119476 1.033897,1.089606 
	C416.227509,1.089606 831.455078,1.089606 1246.841309,1.089606 
	C1246.841309,335.999939 1246.841309,670.999939 1246.841309,1006.000000 
	C1035.785889,1006.000000 824.642944,1006.000000 613.000000,1006.000000 
M707.049988,768.003296 
	C708.264709,771.991089 707.395325,775.237549 704.790344,778.703735 
	C701.800842,782.681335 702.795776,784.644226 707.410339,786.475464 
	C713.121765,778.826233 718.931641,771.203796 724.507324,763.413635 
	C725.386719,762.184937 726.046082,759.451660 725.370605,758.692932 
	C722.606018,755.587830 719.284851,752.978271 715.534424,749.865723 
	C711.485107,744.257324 707.300598,738.740845 703.411865,733.023254 
	C691.728394,715.845093 680.287415,698.499878 668.417358,681.452759 
	C666.522522,678.731567 662.905701,677.209473 660.342041,674.380798 
	C662.559692,671.589661 667.115784,670.692505 666.405090,665.550476 
	C664.104492,648.903748 662.437988,632.164856 659.916504,615.554138 
	C654.522156,580.017761 648.788208,544.532593 643.106689,509.040314 
	C640.231934,491.081818 634.082336,474.574219 620.719482,461.577637 
	C618.123840,459.053101 617.823792,456.548767 618.256104,453.141815 
	C621.066162,430.999817 623.842651,408.824188 622.124084,386.431580 
	C621.355042,376.411163 617.384399,367.423615 612.019470,358.275909 
	C611.692383,353.313049 611.365234,348.350220 611.693176,343.030060 
	C613.196045,342.338318 614.798157,341.803802 616.184998,340.928253 
	C622.990051,336.631805 627.229004,330.467285 628.776001,322.595825 
	C630.041626,316.156219 628.096375,310.643860 622.998230,306.380676 
	C629.398865,301.386108 629.254822,300.273773 622.244324,297.239105 
	C621.066406,296.729187 620.109009,295.732605 618.981201,295.079224 
	C617.105591,293.992737 615.175171,292.267273 613.266602,292.265717 
	C612.235107,292.264862 611.201111,295.278107 610.067444,297.092987 
	C609.791992,296.929047 609.208313,296.635376 608.682434,296.260651 
	C595.627625,286.957825 576.451538,288.500183 565.286865,299.759491 
	C558.131531,306.975433 558.427429,311.619202 566.262390,318.320282 
	C568.565063,326.129974 571.866394,333.758728 570.769836,341.040466 
	C573.464966,343.501282 575.550415,345.583710 577.821594,347.438721 
	C581.562439,350.493988 583.136414,357.973602 590.813782,353.127899 
	C593.245239,351.593231 595.492249,353.914520 594.863098,357.257294 
	C594.142883,361.083435 593.348755,364.895660 592.219482,369.252228 
	C586.119019,376.822540 579.916321,384.313324 573.945801,391.984772 
	C567.592285,400.148346 564.883728,409.034027 568.639221,419.337524 
	C570.156372,423.500061 570.699158,428.017731 571.327515,433.123474 
	C569.679138,436.483154 567.602722,436.520416 565.191895,433.909485 
	C560.470581,428.796204 555.132019,424.113708 551.181152,418.461517 
	C545.637146,410.530273 537.712036,403.572510 538.783142,392.254181 
	C539.096252,388.945953 535.196777,387.260651 531.288574,388.435577 
	C524.942566,383.392487 518.592041,378.355072 512.252808,373.303375 
	C509.759674,371.316620 507.310608,369.641815 504.975250,373.818573 
	C509.075256,377.195251 513.132507,380.536713 516.821899,384.537598 
	C510.961884,394.050568 512.970032,401.977570 522.623352,406.687592 
	C527.260620,408.950226 530.372803,412.140076 532.812012,416.901367 
	C538.005249,427.038208 543.577271,437.074799 550.003418,446.461395 
	C557.288757,457.102997 567.295837,462.779572 578.313110,456.861267 
	C578.259094,458.809418 578.522644,460.829559 578.099854,462.694122 
	C575.231750,475.343536 572.074768,487.928375 569.280396,500.593475 
	C561.931702,533.900208 554.316772,567.156067 547.589600,600.589478 
	C542.735535,624.713501 539.222107,649.105286 534.895752,673.339233 
	C534.119629,677.686768 535.906250,679.306824 539.591248,680.492004 
	C547.006226,682.876709 554.331848,685.539368 561.335022,689.016968 
	C560.242310,694.181458 559.012390,699.321411 558.083008,704.515137 
	C555.470764,719.112976 553.003845,733.736694 550.437561,748.342896 
	C548.668396,758.412415 546.741516,768.454956 545.062256,778.539124 
	C544.325134,782.965271 544.336060,787.585938 538.971069,789.440308 
	C538.398987,789.638062 538.273743,791.128479 537.185486,791.849670 
	C533.139648,794.790161 528.697571,796.368042 523.648499,796.928406 
	C520.143738,797.317383 519.982361,800.090576 521.437622,803.097900 
	C529.993469,803.097900 538.463257,803.049377 546.932190,803.112366 
	C554.509460,803.168701 555.222839,802.747803 556.406189,795.264832 
	C556.727173,793.235107 556.147339,791.062927 556.024048,788.169800 
	C562.651001,769.146545 569.283630,750.125305 575.902832,731.099304 
	C580.314819,718.417664 585.080750,705.817627 585.939087,692.006836 
	C588.412476,692.197021 590.884888,692.400146 593.359314,692.575317 
	C609.070190,693.687317 624.274841,691.053589 639.155273,687.139099 
	C639.427307,687.719666 639.570923,688.422485 639.990173,688.862976 
	C650.551758,699.958740 661.176270,710.994690 671.717346,722.109802 
	C680.686584,731.567566 689.282715,741.400574 698.600098,750.497986 
	C703.491394,755.273743 708.487061,759.398987 707.049988,768.003296 
M553.959351,290.991425 
	C551.617615,275.611511 536.662720,264.464661 521.355835,264.646362 
	C500.982269,264.888153 483.877441,286.279572 492.130493,308.457153 
	C497.540955,322.996094 507.464813,333.772675 518.996460,343.493378 
	C521.233154,345.378784 523.057190,345.388977 525.113159,343.503815 
	C528.291992,340.589203 531.657288,337.857056 534.647583,334.761536 
	C546.199402,322.803223 555.773010,309.893921 553.959351,290.991425 
z"/>
<path fill="#0394FE" opacity="1.000000" stroke="none" 
	d="
M571.685364,432.373779 
	C570.699158,428.017731 570.156372,423.500061 568.639221,419.337524 
	C564.883728,409.034027 567.592285,400.148346 573.945801,391.984772 
	C579.916321,384.313324 586.119019,376.822540 592.729858,368.898254 
	C599.492615,365.373901 605.745056,362.203522 611.997437,359.033142 
	C617.384399,367.423615 621.355042,376.411163 622.124084,386.431580 
	C623.842651,408.824188 621.066162,430.999817 618.256104,453.141815 
	C617.823792,456.548767 618.123840,459.053101 620.719482,461.577637 
	C634.082336,474.574219 640.231934,491.081818 643.106689,509.040314 
	C648.788208,544.532593 654.522156,580.017761 659.916504,615.554138 
	C662.437988,632.164856 664.104492,648.903748 666.405090,665.550476 
	C667.115784,670.692505 662.559692,671.589661 659.961670,674.782654 
	C652.787781,678.911987 645.994324,682.639404 639.200928,686.366821 
	C624.274841,691.053589 609.070190,693.687317 593.359314,692.575317 
	C590.884888,692.400146 588.412476,692.197021 585.133911,691.870117 
	C576.783997,690.518005 569.239136,689.302673 561.694336,688.087341 
	C554.331848,685.539368 547.006226,682.876709 539.591248,680.492004 
	C535.906250,679.306824 534.119629,677.686768 534.895752,673.339233 
	C539.222107,649.105286 542.735535,624.713501 547.589600,600.589478 
	C554.316772,567.156067 561.931702,533.900208 569.280396,500.593475 
	C572.074768,487.928375 575.231750,475.343536 578.099854,462.694122 
	C578.522644,460.829559 578.259094,458.809418 578.391968,456.182068 
	C593.190491,445.318390 602.525879,430.873627 609.431396,414.874664 
	C612.395203,408.008057 614.272461,400.403839 615.100769,392.963043 
	C615.860107,386.141113 612.245361,382.611633 605.418213,380.385986 
	C599.202148,378.359497 595.468018,379.450256 591.137878,385.073914 
	C589.339844,387.409027 587.699158,390.040497 586.716248,392.797150 
	C582.816406,403.734741 579.284790,414.803284 575.422302,425.754730 
	C574.592407,428.107697 572.952271,430.174927 571.685364,432.373779 
z"/>
<path fill="#F9D3AE" opacity="1.000000" stroke="none" 
	d="
M571.506470,432.748627 
	C572.952271,430.174927 574.592407,428.107697 575.422302,425.754730 
	C579.284790,414.803284 582.816406,403.734741 586.716248,392.797150 
	C587.699158,390.040497 589.339844,387.409027 591.137878,385.073914 
	C595.468018,379.450256 599.202148,378.359497 605.418213,380.385986 
	C612.245361,382.611633 615.860107,386.141113 615.100769,392.963043 
	C614.272461,400.403839 612.395203,408.008057 609.431396,414.874664 
	C602.525879,430.873627 593.190491,445.318390 578.255493,455.750031 
	C567.295837,462.779572 557.288757,457.102997 550.003418,446.461395 
	C543.577271,437.074799 538.005249,427.038208 532.812012,416.901367 
	C530.372803,412.140076 527.260620,408.950226 522.623352,406.687592 
	C512.970032,401.977570 510.961884,394.050568 517.321655,384.306702 
	C523.050964,388.201691 528.280396,392.327515 533.620300,396.540466 
	C535.621155,392.560974 535.621155,392.560974 531.991577,388.706421 
	C535.196777,387.260651 539.096252,388.945953 538.783142,392.254181 
	C537.712036,403.572510 545.637146,410.530273 551.181152,418.461517 
	C555.132019,424.113708 560.470581,428.796204 565.191895,433.909485 
	C567.602722,436.520416 569.679138,436.483154 571.506470,432.748627 
z"/>
<path fill="#D4D3D1" opacity="1.000000" stroke="none" 
	d="
M553.973145,291.442566 
	C555.773010,309.893921 546.199402,322.803223 534.647583,334.761536 
	C531.657288,337.857056 528.291992,340.589203 525.113159,343.503815 
	C523.057190,345.388977 521.233154,345.378784 518.996460,343.493378 
	C507.464813,333.772675 497.540955,322.996094 492.130493,308.457153 
	C483.877441,286.279572 500.982269,264.888153 521.355835,264.646362 
	C536.662720,264.464661 551.617615,275.611511 553.973145,291.442566 
M507.783966,298.794556 
	C509.219482,305.366089 513.215698,309.491028 518.652954,310.013611 
	C526.844666,310.800995 531.503845,308.262512 534.239075,301.521790 
	C536.617432,295.660553 535.115479,289.709351 529.923157,285.457275 
	C525.520630,281.851929 520.373169,281.432495 515.500916,283.902802 
	C509.942505,286.720947 506.876953,291.476227 507.783966,298.794556 
z"/>
<path fill="#3F3D3B" opacity="1.000000" stroke="none" 
	d="
M566.417053,317.498718 
	C558.427429,311.619202 558.131531,306.975433 565.286865,299.759491 
	C576.451538,288.500183 595.627625,286.957825 608.682434,296.260651 
	C609.208313,296.635376 609.791992,296.929047 610.067444,297.092987 
	C611.201111,295.278107 612.235107,292.264862 613.266602,292.265717 
	C615.175171,292.267273 617.105591,293.992737 618.981201,295.079224 
	C620.109009,295.732605 621.066406,296.729187 622.244324,297.239105 
	C629.254822,300.273773 629.398865,301.386108 622.998230,306.380676 
	C628.096375,310.643860 630.041626,316.156219 628.776001,322.595825 
	C627.229004,330.467285 622.990051,336.631805 616.184998,340.928253 
	C614.798157,341.803802 613.196045,342.338318 610.963989,343.166351 
	C608.700256,338.958099 606.282471,334.957642 608.116516,329.834625 
	C609.625977,325.618286 605.938110,322.566620 601.656677,323.555542 
	C598.982971,324.173096 596.002380,324.763794 593.411499,324.202698 
	C584.354187,322.241241 575.406433,319.773895 566.417053,317.498718 
z"/>
<path fill="#F9D3AE" opacity="1.000000" stroke="none" 
	d="
M561.514648,688.552124 
	C569.239136,689.302673 576.783997,690.518005 584.733765,691.918579 
	C585.080750,705.817627 580.314819,718.417664 575.902832,731.099304 
	C569.283630,750.125305 562.651001,769.146545 555.602661,788.552124 
	C549.703003,791.184692 544.224731,793.434998 538.401917,795.826782 
	C538.239868,794.487610 538.090515,793.253357 537.941162,792.019165 
	C538.273743,791.128479 538.398987,789.638062 538.971069,789.440308 
	C544.336060,787.585938 544.325134,782.965271 545.062256,778.539124 
	C546.741516,768.454956 548.668396,758.412415 550.437561,748.342896 
	C553.003845,733.736694 555.470764,719.112976 558.083008,704.515137 
	C559.012390,699.321411 560.242310,694.181458 561.514648,688.552124 
z"/>
<path fill="#F9D3AE" opacity="1.000000" stroke="none" 
	d="
M639.178101,686.752930 
	C645.994324,682.639404 652.787781,678.911987 659.833069,675.158752 
	C662.905701,677.209473 666.522522,678.731567 668.417358,681.452759 
	C680.287415,698.499878 691.728394,715.845093 703.411865,733.023254 
	C707.300598,738.740845 711.485107,744.257324 715.732300,750.361084 
	C714.468445,756.555969 713.006653,762.255554 711.548279,767.941895 
	C709.965393,767.645630 708.557617,767.382141 707.149902,767.118652 
	C708.487061,759.398987 703.491394,755.273743 698.600098,750.497986 
	C689.282715,741.400574 680.686584,731.567566 671.717346,722.109802 
	C661.176270,710.994690 650.551758,699.958740 639.990173,688.862976 
	C639.570923,688.422485 639.427307,687.719666 639.178101,686.752930 
z"/>
<path fill="#F9D3AE" opacity="1.000000" stroke="none" 
	d="
M566.339722,317.909485 
	C575.406433,319.773895 584.354187,322.241241 593.411499,324.202698 
	C596.002380,324.763794 598.982971,324.173096 601.656677,323.555542 
	C605.938110,322.566620 609.625977,325.618286 608.116516,329.834625 
	C606.282471,334.957642 608.700256,338.958099 610.636475,343.345001 
	C611.365234,348.350220 611.692383,353.313049 612.008423,358.654541 
	C605.745056,362.203522 599.492615,365.373901 592.913452,368.629089 
	C593.348755,364.895660 594.142883,361.083435 594.863098,357.257294 
	C595.492249,353.914520 593.245239,351.593231 590.813782,353.127899 
	C583.136414,357.973602 581.562439,350.493988 577.821594,347.438721 
	C575.550415,345.583710 573.464966,343.501282 570.769836,341.040466 
	C571.866394,333.758728 568.565063,326.129974 566.339722,317.909485 
z"/>
<path fill="#3F3D3B" opacity="1.000000" stroke="none" 
	d="
M707.099976,767.560974 
	C708.557617,767.382141 709.965393,767.645630 711.548279,767.941895 
	C713.006653,762.255554 714.468445,756.555969 716.049377,750.521362 
	C719.284851,752.978271 722.606018,755.587830 725.370605,758.692932 
	C726.046082,759.451660 725.386719,762.184937 724.507324,763.413635 
	C718.931641,771.203796 713.121765,778.826233 707.410339,786.475464 
	C702.795776,784.644226 701.800842,782.681335 704.790344,778.703735 
	C707.395325,775.237549 708.264709,771.991089 707.099976,767.560974 
z"/>
<path fill="#3F3D3B" opacity="1.000000" stroke="none" 
	d="
M537.563354,791.934448 
	C538.090515,793.253357 538.239868,794.487610 538.401917,795.826782 
	C544.224731,793.434998 549.703003,791.184692 555.581055,788.945251 
	C556.147339,791.062927 556.727173,793.235107 556.406189,795.264832 
	C555.222839,802.747803 554.509460,803.168701 546.932190,803.112366 
	C538.463257,803.049377 529.993469,803.097900 521.437622,803.097900 
	C519.982361,800.090576 520.143738,797.317383 523.648499,796.928406 
	C528.697571,796.368042 533.139648,794.790161 537.563354,791.934448 
z"/>
<path fill="#3F3D3B" opacity="1.000000" stroke="none" 
	d="
M531.640076,388.570984 
	C535.621155,392.560974 535.621155,392.560974 533.620300,396.540466 
	C528.280396,392.327515 523.050964,388.201691 517.505615,383.977020 
	C513.132507,380.536713 509.075256,377.195251 504.975250,373.818573 
	C507.310608,369.641815 509.759674,371.316620 512.252808,373.303375 
	C518.592041,378.355072 524.942566,383.392487 531.640076,388.570984 
z"/>
<path fill="#FFFFFF" opacity="1.000000" stroke="none" 
	d="
M507.654175,298.425537 
	C506.876953,291.476227 509.942505,286.720947 515.500916,283.902802 
	C520.373169,281.432495 525.520630,281.851929 529.923157,285.457275 
	C535.115479,289.709351 536.617432,295.660553 534.239075,301.521790 
	C531.503845,308.262512 526.844666,310.800995 518.652954,310.013611 
	C513.215698,309.491028 509.219482,305.366089 507.654175,298.425537 
z"/>
</svg>